<svg id="visual" viewBox="0 0 900 600" width="900" height="600" xmlns="http://www.w3.org/2000/svg" xmlns:xlink="http://www.w3.org/1999/xlink" version="1.1"><rect x="0" y="0" width="900" height="600" fill="#FFF"></rect><path d="M0 461L129 456L257 474L386 491L514 462L643 485L771 454L900 489L900 601L771 601L643 601L514 601L386 601L257 601L129 601L0 601Z" fill="#3b82bf"></path><path d="M0 504L129 516L257 516L386 497L514 482L643 513L771 507L900 484L900 601L771 601L643 601L514 601L386 601L257 601L129 601L0 601Z" fill="#416ca6"></path><path d="M0 510L129 523L257 526L386 526L514 517L643 504L771 526L900 528L900 601L771 601L643 601L514 601L386 601L257 601L129 601L0 601Z" fill="#42568c"></path><path d="M0 532L129 533L257 558L386 556L514 554L643 558L771 539L900 535L900 601L771 601L643 601L514 601L386 601L257 601L129 601L0 601Z" fill="#3f4272"></path><path d="M0 577L129 561L257 573L386 580L514 561L643 561L771 559L900 567L900 601L771 601L643 601L514 601L386 601L257 601L129 601L0 601Z" fill="#382f59"></path></svg>